<svg width="22" height="18" viewBox="0 0 22 18" fill="none" xmlns="http://www.w3.org/2000/svg">
<path d="M16.9304 16.6199C16.5104 11.5852 10.3814 9.22526 6.77222 12.8728C5.80705 13.8488 5.17083 15.1941 5.04956 16.6199H16.9304ZM15.3523 8.42068C14.8819 9.23857 14.1922 9.91356 13.3601 10.3611C14.5211 10.7743 15.5451 11.487 16.3435 12.4041H19.9548C19.6883 10.0931 17.7194 8.34231 15.3523 8.42068ZM6.64917 8.42068C4.2826 8.34287 2.31414 10.0944 2.04761 12.4041H5.6355C6.4366 11.4818 7.4657 10.7708 8.63159 10.3562C7.80269 9.91069 7.11741 9.23553 6.64917 8.42068ZM10.988 1.98904C8.2419 1.99014 6.2784 4.87742 7.50073 7.53983C8.88154 10.5437 13.118 10.541 14.4988 7.53983C15.6823 4.96699 13.9018 2.02485 10.988 1.98904ZM17.5291 2.22049C16.5822 1.26328 15.1117 1.11123 13.9949 1.82889C15.6081 3.03682 16.3696 5.11262 15.8757 7.11502C18.1941 6.82808 19.211 3.91941 17.5291 2.22049ZM8.00757 1.82791C6.14963 0.627266 3.64057 1.96059 3.64038 4.26053C3.64038 5.71797 4.71215 6.93256 6.12378 7.11307C5.63107 5.1109 6.39435 3.03518 8.00757 1.82791ZM21.1433 12.9812C21.1433 13.3006 20.8847 13.5602 20.5642 13.5603H17.1638C17.7587 14.6096 18.1335 15.9317 18.1335 17.199C18.1335 17.5185 17.8751 17.7781 17.5544 17.7781L4.41577 17.7752H4.40894C4.24286 17.7636 4.10539 17.6931 4.0105 17.5769C3.93584 17.4855 3.89265 17.3705 3.87769 17.243H3.86792V17.1433C3.86792 15.8383 4.2144 14.6162 4.81421 13.5613H1.4353C1.26469 13.5613 1.11878 13.4982 1.01538 13.3836C0.913294 13.2704 0.859542 13.1151 0.856201 12.9402V12.7215C0.896989 10.5383 2.34591 8.51194 4.35718 7.67947C0.995609 5.57299 2.4527 0.222443 6.48218 0.222443C7.45433 0.222512 8.37691 0.578026 9.09546 1.20682C10.3072 0.707385 11.6923 0.707393 12.9041 1.20682C15.4677 -1.03815 19.518 0.795531 19.5183 4.25858C19.5183 5.6745 18.7842 6.95037 17.6394 7.67752C19.76 8.54623 21.1127 10.5777 21.1433 12.9803V12.9812Z" fill="#5718FF" stroke="#5718FF" stroke-width="0.2"/>
<path d="M12.6077 6.50116C12.7498 6.46596 12.899 6.49074 13.0237 6.55487C13.1484 6.61907 13.2552 6.72639 13.3088 6.86249C13.3632 7.00097 13.3592 7.16258 13.2747 7.32635C12.3196 9.17893 9.68178 9.17882 8.72583 7.32635C8.64155 7.16248 8.63817 7.0009 8.69263 6.86249C8.74626 6.72641 8.85323 6.61901 8.97778 6.55487C9.10223 6.49094 9.25116 6.46685 9.39282 6.50214C9.537 6.5382 9.66694 6.63444 9.75122 6.79803C10.2786 7.81541 11.7213 7.8176 12.2473 6.79803C12.3324 6.63413 12.4629 6.53712 12.6077 6.50116Z" fill="#5718FF" stroke="#5718FF" stroke-width="0.2"/>
</svg>
